<svg xmlns="http://www.w3.org/2000/svg" width="512" height="512" viewBox="0 0 512 512" version="1.1"><path d="M 31.487 1.799 C 19.425 5.970, 9.133 15.218, 3.748 26.724 C -2.360 39.778, -1.046 57.454, 6.949 69.779 C 23.046 94.590, 56.816 98.314, 77.565 77.565 C 101.813 53.318, 91.647 12.084, 58.909 1.895 C 51.072 -0.544, 38.391 -0.589, 31.487 1.799 M 243.139 2.164 C 235.691 5.024, 226.933 13.891, 224.115 21.423 C 216.492 41.797, 228.949 63.980, 250.197 67.870 C 278.013 72.961, 299.424 43.504, 286.477 17.955 C 283.334 11.752, 275.203 4.594, 268.414 2.054 C 261.090 -0.687, 250.438 -0.640, 243.139 2.164 M 156.020 74.250 C 149.755 77.452, 147.500 80.958, 147.500 87.500 C 147.500 93.542, 149.449 96.966, 155.092 100.839 C 157.842 102.726, 159.432 103.091, 163.324 102.729 C 171.845 101.935, 177.500 95.930, 177.500 87.677 C 177.500 81.245, 174.483 76.578, 168.599 73.905 C 163.262 71.482, 161.335 71.534, 156.020 74.250 M 201 201.025 C 179.386 201.793, 168.409 203.502, 155.225 208.150 C 143.891 212.147, 138.412 214.955, 127.776 222.222 C 78.413 255.949, 61.767 320.539, 88.813 373.415 C 109.078 413.033, 150.021 437.907, 195.090 437.978 C 213.962 438.008, 225.099 435.106, 245.500 424.839 C 280.212 407.371, 315.343 374.281, 342.990 333.015 C 348.247 325.169, 350.617 320.817, 349.782 320.546 C 349.077 320.317, 344.450 318.935, 339.500 317.475 C 320.221 311.789, 304.918 302.842, 290.318 288.723 C 269.121 268.225, 256.014 240.898, 249.561 203.750 L 248.909 200 234.705 200.166 C 226.892 200.257, 211.725 200.644, 201 201.025 M 173.783 280.061 C 164.391 281.134, 154.040 286.311, 146.831 293.543 C 129.186 311.242, 128.463 339.215, 145.176 357.502 C 167.885 382.349, 208.064 376.593, 222.159 346.474 C 230.542 328.560, 227.220 308.469, 213.496 294.081 C 202.844 282.914, 189.635 278.251, 173.783 280.061 M 175.643 313.068 C 164.771 316.175, 162.568 331.284, 172.006 338.004 C 175.815 340.716, 182.705 340.878, 186.976 338.355 C 190.127 336.494, 194.017 329.871, 193.978 326.434 C 193.936 322.758, 190.188 316.148, 187.329 314.709 C 183.381 312.722, 179.004 312.108, 175.643 313.068" stroke="none" fill="#fbe05f" fill-rule="evenodd"/><path d="M 356.241 27.995 C 343.233 35.926, 348.794 55.993, 364 55.993 C 372.532 55.993, 378.993 49.532, 378.993 41 C 378.993 32.468, 372.532 26.007, 364 26.007 C 361.270 26.007, 358.218 26.789, 356.241 27.995 M 484.385 35.380 C 482.671 36.156, 477.721 40.044, 473.385 44.020 C 448.080 67.223, 417.681 86.207, 391.027 95.455 C 348.664 110.152, 283.456 119.116, 201.500 121.509 C 169.077 122.456, 154.757 124.645, 132.676 132.028 C 62.825 155.382, 11.946 216.710, 1.511 290.130 C -0.437 303.829, -0.410 329.989, 1.564 344.148 C 13.754 431.544, 81.418 500.468, 165.404 511.039 C 178.066 512.633, 215.508 511.782, 226.811 509.644 C 270.851 501.313, 307.412 480.825, 344.097 443.921 C 385.522 402.246, 423.467 338.040, 454.869 256.482 C 464.119 232.456, 476.437 195.556, 484.406 168 C 497.146 123.942, 512 61.823, 512 52.600 C 512 46.458, 508.843 40.802, 503.294 36.999 C 498.968 34.035, 489.204 33.199, 484.385 35.380 M 7.984 146.852 C -2.780 152.572, -2.764 168.026, 8.013 173.725 C 10.379 174.976, 13.523 176, 15 176 C 19.254 176, 26.080 171.841, 28.145 167.991 C 33.663 157.700, 26.402 145, 15 145 C 13.058 145, 9.901 145.833, 7.984 146.852 M 201 201.025 C 179.386 201.793, 168.409 203.502, 155.225 208.150 C 143.891 212.147, 138.412 214.955, 127.776 222.222 C 78.413 255.949, 61.767 320.539, 88.813 373.415 C 109.078 413.033, 150.021 437.907, 195.090 437.978 C 213.962 438.008, 225.099 435.106, 245.500 424.839 C 280.212 407.371, 315.343 374.281, 342.990 333.015 C 348.247 325.169, 350.617 320.817, 349.782 320.546 C 349.077 320.317, 344.450 318.935, 339.500 317.475 C 320.221 311.789, 304.918 302.842, 290.318 288.723 C 269.121 268.225, 256.014 240.898, 249.561 203.750 L 248.909 200 234.705 200.166 C 226.892 200.257, 211.725 200.644, 201 201.025 M 173.783 280.061 C 164.391 281.134, 154.040 286.311, 146.831 293.543 C 129.186 311.242, 128.463 339.215, 145.176 357.502 C 167.885 382.349, 208.064 376.593, 222.159 346.474 C 230.542 328.560, 227.220 308.469, 213.496 294.081 C 202.844 282.914, 189.635 278.251, 173.783 280.061 M 175.643 313.068 C 164.771 316.175, 162.568 331.284, 172.006 338.004 C 175.815 340.716, 182.705 340.878, 186.976 338.355 C 190.127 336.494, 194.017 329.871, 193.978 326.434 C 193.936 322.758, 190.188 316.148, 187.329 314.709 C 183.381 312.722, 179.004 312.108, 175.643 313.068 M 467.013 337.275 C 456.236 342.974, 456.220 358.428, 466.984 364.148 C 480.245 371.195, 494.337 356.420, 487.145 343.009 C 485.080 339.159, 478.254 335, 474 335 C 472.523 335, 469.379 336.024, 467.013 337.275 M 451.856 423.316 C 448.202 424.562, 443.329 426.886, 441.028 428.481 C 435.861 432.061, 428.447 440.202, 426.030 444.948 C 418.963 458.823, 419.465 476.879, 427.288 490.228 C 430.421 495.575, 439.347 504.116, 444.603 506.798 C 457.109 513.177, 473.115 513.733, 485.238 508.208 C 492.829 504.748, 501.841 496.834, 505.712 490.228 C 513.626 476.724, 514.044 458.836, 506.779 444.573 C 504.117 439.346, 495.566 430.416, 490.228 427.288 C 479.034 420.728, 464.012 419.173, 451.856 423.316" stroke="none" fill="#d310c1" fill-rule="evenodd"/></svg>